<svg xmlns="http://www.w3.org/2000/svg" width="98.376" height="99" viewBox="0 0 98.376 99"><defs><style>.a{fill:#fff;}.b{fill:none;stroke:#0153ff;stroke-linecap:round;stroke-linejoin:round;stroke-width:8px;}</style></defs><g transform="translate(-131.001 -191)"><path class="a" d="M43.948,96.365a8.321,8.321,0,0,1-12.531-3.589A8.339,8.339,0,0,1,20.37,85.86a8.348,8.348,0,0,1-8.7-9.7A8.338,8.338,0,0,1,5.986,64.453,8.324,8.324,0,0,1,3.75,51.639a8.289,8.289,0,0,1-2.481-5.886,8.394,8.394,0,0,1,.046-.9A8.286,8.286,0,0,1,5.122,38.71,8.279,8.279,0,0,1,9.99,26.658,8.263,8.263,0,0,1,17.982,16.4,8.261,8.261,0,0,1,28.493,8.736a8.272,8.272,0,0,1,14.178-2.8A8.3,8.3,0,0,1,56.965,3.668,8.32,8.32,0,0,1,69.5,7.257a8.34,8.34,0,0,1,11.048,6.916,8.348,8.348,0,0,1,8.7,9.7A8.338,8.338,0,0,1,94.927,35.58a8.323,8.323,0,0,1,2.236,12.815,8.291,8.291,0,0,1,2.482,5.886,8.4,8.4,0,0,1-.046.9,8.287,8.287,0,0,1-3.807,6.141,8.278,8.278,0,0,1-4.868,12.052A8.264,8.264,0,0,1,82.93,83.63,8.26,8.26,0,0,1,72.42,91.3,8.272,8.272,0,0,1,58.506,94.39l-.413.077a8.3,8.3,0,0,1-14.145,1.9Z" transform="translate(129.732 190.483)"/><path class="b" d="M10691.8,1134.344l12.038,12.038,24.948-24.949" transform="translate(-10530.305 -892.932)"/></g></svg>